# Blender v2.76 (sub 0) OBJ File: 'untitled.blend'
# www.blender.org
mtllib untitled.mtl
o Cube
v 1.000000 1.000000 -1.000000
v 1.000000 -1.000000 -1.000000
v -1.000000 -1.000000 -1.000000
v -1.000000 1.000000 -1.000000
v 1.000000 0.999999 1.000000
v 0.999999 -1.000001 1.000000
v -1.000000 -1.000000 1.000000
v -1.000000 1.000000 1.000000
v 0.589376 0.589375 1.618027
v 0.589375 -0.589376 1.618027
v -0.589376 0.589376 1.618027
v -0.589376 -0.589375 1.618027
v 0.271849 0.271848 2.180578
v 0.271848 -0.271849 2.180578
v -0.271849 0.271848 2.180578
v -0.271849 -0.271848 2.180578
v 0.271849 0.271848 3.218163
v 0.271848 -0.271849 3.218163
v -0.271849 0.271848 3.218163
v -0.271849 -0.271848 3.218163
vt 0.336551 0.000000
vt 0.336552 0.333333
vt 0.000000 0.333333
vt 0.228337 1.000000
vt 0.114169 0.931563
vt 0.114169 0.735104
vt 0.668276 0.666667
vt 0.668276 0.333333
vt 1.000000 0.333334
vt 0.668276 0.000000
vt 0.331724 0.333333
vt 0.331724 0.666667
vt 0.000000 0.666667
vt 0.439939 0.529792
vt 0.337615 0.476871
vt 0.337615 0.386255
vt 0.554107 0.333333
vt 0.668276 0.401771
vt 0.668276 0.598229
vt 0.114169 1.000000
vt 0.000000 0.931563
vt 0.000000 0.735104
vt 0.554107 0.666667
vt 0.439939 0.598229
vt 0.337615 0.896701
vt 0.337615 0.726250
vt 0.429106 0.726250
vt 0.439939 0.726251
vt 0.337615 0.673329
vt 0.337615 0.582713
vt 0.656431 0.863125
vt 0.554107 0.810204
vt 0.554107 0.719588
vt 0.330660 0.863125
vt 0.228337 0.810204
vt 0.228337 0.719588
vt 0.554107 0.927733
vt 0.462616 0.927733
vt 0.462616 0.837117
vt 0.851258 0.666667
vt 0.851258 0.837117
vt 0.759767 0.837117
vt 0.668276 0.837117
vt 0.759767 0.666667
vt 0.462616 0.666667
vt 0.000000 0.000000
vt 0.228337 0.666667
vt 1.000000 0.666667
vt 1.000000 0.000000
vt 0.439939 0.333333
vt 0.114168 0.666667
vt 0.439939 0.401771
vt 0.429106 0.896701
vt 0.656431 0.666667
vt 0.330660 0.666667
vt 0.554107 0.837117
vn 0.000000 0.000000 -1.000000
vn -0.832900 0.000000 0.553400
vn 1.000000 -0.000000 0.000000
vn -0.000000 -1.000000 0.000000
vn -1.000000 0.000000 -0.000000
vn 0.000000 1.000000 0.000000
vn 0.000000 0.870900 0.491500
vn 0.000000 0.832900 0.553400
vn -0.000000 -0.832900 0.553400
vn 0.832900 -0.000000 0.553400
vn -0.000000 -0.870900 0.491500
vn 0.870900 -0.000000 0.491500
vn -0.870900 0.000000 0.491500
vn 0.000000 0.000000 1.000000
usemtl Material
s off
f 2/1/1 3/2/1 4/3/1
f 7/4/2 12/5/2 11/6/2
f 5/7/3 6/8/3 2/9/3
f 6/10/4 7/8/4 3/2/4
f 3/9/5 7/8/5 8/10/5
f 1/11/6 4/12/6 8/13/6
f 11/14/7 15/15/7 13/16/7
f 8/17/8 11/18/8 9/19/8
f 6/20/9 10/21/9 12/22/9
f 6/17/10 5/23/10 9/24/10
f 14/25/4 18/26/4 20/27/4
f 10/28/11 14/29/11 16/30/11
f 9/31/12 13/32/12 14/33/12
f 12/34/13 16/35/13 15/36/13
f 19/37/14 20/38/14 18/39/14
f 13/40/3 17/41/3 18/42/3
f 16/43/5 20/7/5 19/44/5
f 15/39/6 19/45/6 17/23/6
f 1/46/1 2/1/1 4/3/1
f 8/47/2 7/4/2 11/6/2
f 1/48/3 5/7/3 2/9/3
f 2/1/4 6/10/4 3/2/4
f 4/49/5 3/9/5 8/10/5
f 5/3/6 1/11/6 8/13/6
f 9/50/7 11/14/7 13/16/7
f 5/23/8 8/17/8 9/19/8
f 7/51/9 6/20/9 12/22/9
f 10/52/10 6/17/10 9/24/10
f 16/53/4 14/25/4 20/27/4
f 12/14/11 10/28/11 16/30/11
f 10/54/12 9/31/12 14/33/12
f 11/55/13 12/34/13 15/36/13
f 17/56/14 19/37/14 18/39/14
f 14/44/3 13/40/3 18/42/3
f 15/42/5 16/43/5 19/44/5
f 13/56/6 15/39/6 17/23/6
